# xmcd
#
# Track frame offsets: 
#        150
#        13975
#        27093
#        42656
#        53323
#        76436
#        89731
#        99036
#        111275
#        124598
#        136084
#        149330
#        163875
#        176473
#        189226
#        203258
#        216670
#        228123
#
# Disc length: 3223 seconds
#
# Revision: 0
# Processed by: cddbd v1.5.2PL0 Copyright (c) Steve Scherf et al.
# Submitted via: ExactAudioCopy v1.3
#
DISCID=ec0c9512
DTITLE=Marty Robbins - 20th Century Drifter - The MCA Years [CD1]
DYEAR=2014
DGENRE=Country
TTITLE0=Twentieth Century Drifter
TTITLE1=I Heard The Bluebirds Sing
TTITLE2=The Way I'm Needing You
TTITLE3=You're An Angel Disguised As A Girl
TTITLE4=Georgia Blood
TTITLE5=Don't You Think
TTITLE6=Mother Knows Best
TTITLE7=Darling Come Home
TTITLE8=Love Needs
TTITLE9=I Couldn't Believe it Was True
TTITLE10=Queen of The Big Rodeo
TTITLE11=I'm Wanting to
TTITLE12=Two Gun Daddy
TTITLE13=Crawling on My Knees
TTITLE14=Franklin, Tennessee
TTITLE15=She's Too Good To Be True
TTITLE16=Life
TTITLE17=There's Still Another Mountain
EXTD=
EXTT0=
EXTT1=
EXTT2=
EXTT3=
EXTT4=
EXTT5=
EXTT6=
EXTT7=
EXTT8=
EXTT9=
EXTT10=
EXTT11=
EXTT12=
EXTT13=
EXTT14=
EXTT15=
EXTT16=
EXTT17=
PLAYORDER=
